<mxfile host="app.diagrams.net" modified="2021-11-09T20:20:39.455Z" agent="5.0 (Windows NT 10.0; Win64; x64) AppleWebKit/537.36 (KHTML, like Gecko) Chrome/95.0.4638.69 Safari/537.36 Edg/95.0.1020.44" etag="-PwoMnhImZ_cdKUW1HrC" version="15.7.1" type="github">
  <diagram id="03ZAokcntrlKChbKRNU_" name="Page-1">
    <mxGraphModel dx="1635" dy="908" grid="1" gridSize="10" guides="1" tooltips="1" connect="1" arrows="1" fold="1" page="1" pageScale="1" pageWidth="1700" pageHeight="1100" math="0" shadow="0">
      <root>
        <mxCell id="0" />
        <mxCell id="1" parent="0" />
        <mxCell id="AI65t0Lun6rir1HkQO0F-37" style="edgeStyle=orthogonalEdgeStyle;rounded=0;orthogonalLoop=1;jettySize=auto;html=1;exitX=0.5;exitY=1;exitDx=0;exitDy=0;exitPerimeter=0;entryX=0.5;entryY=0;entryDx=0;entryDy=0;" parent="1" source="AI65t0Lun6rir1HkQO0F-2" target="AI65t0Lun6rir1HkQO0F-4" edge="1">
          <mxGeometry relative="1" as="geometry" />
        </mxCell>
        <mxCell id="AI65t0Lun6rir1HkQO0F-2" value="Inicio de la aplicación" style="strokeWidth=2;html=1;shape=mxgraph.flowchart.start_1;whiteSpace=wrap;" parent="1" vertex="1">
          <mxGeometry x="765" y="30" width="100" height="60" as="geometry" />
        </mxCell>
        <mxCell id="AI65t0Lun6rir1HkQO0F-40" value="" style="edgeStyle=orthogonalEdgeStyle;rounded=0;orthogonalLoop=1;jettySize=auto;html=1;" parent="1" source="AI65t0Lun6rir1HkQO0F-3" target="AI65t0Lun6rir1HkQO0F-5" edge="1">
          <mxGeometry relative="1" as="geometry" />
        </mxCell>
        <mxCell id="AI65t0Lun6rir1HkQO0F-3" value="Inicio de sesión" style="rounded=1;whiteSpace=wrap;html=1;absoluteArcSize=1;arcSize=14;strokeWidth=2;" parent="1" vertex="1">
          <mxGeometry x="760" y="240" width="110" height="50" as="geometry" />
        </mxCell>
        <mxCell id="AI65t0Lun6rir1HkQO0F-38" style="edgeStyle=orthogonalEdgeStyle;rounded=0;orthogonalLoop=1;jettySize=auto;html=1;exitX=0.5;exitY=1;exitDx=0;exitDy=0;entryX=0.5;entryY=0;entryDx=0;entryDy=0;" parent="1" source="AI65t0Lun6rir1HkQO0F-4" target="AI65t0Lun6rir1HkQO0F-3" edge="1">
          <mxGeometry relative="1" as="geometry" />
        </mxCell>
        <mxCell id="AI65t0Lun6rir1HkQO0F-4" value="Sincronización con la nube" style="rounded=1;whiteSpace=wrap;html=1;absoluteArcSize=1;arcSize=14;strokeWidth=2;" parent="1" vertex="1">
          <mxGeometry x="760" y="130" width="110" height="50" as="geometry" />
        </mxCell>
        <mxCell id="AI65t0Lun6rir1HkQO0F-24" style="edgeStyle=orthogonalEdgeStyle;rounded=0;orthogonalLoop=1;jettySize=auto;html=1;exitX=0;exitY=0.5;exitDx=0;exitDy=0;exitPerimeter=0;entryX=0.563;entryY=0.001;entryDx=0;entryDy=0;entryPerimeter=0;" parent="1" source="AI65t0Lun6rir1HkQO0F-5" target="AI65t0Lun6rir1HkQO0F-12" edge="1">
          <mxGeometry relative="1" as="geometry" />
        </mxCell>
        <mxCell id="AI65t0Lun6rir1HkQO0F-26" style="edgeStyle=orthogonalEdgeStyle;rounded=0;orthogonalLoop=1;jettySize=auto;html=1;exitX=0.5;exitY=1;exitDx=0;exitDy=0;exitPerimeter=0;" parent="1" source="AI65t0Lun6rir1HkQO0F-5" target="AI65t0Lun6rir1HkQO0F-9" edge="1">
          <mxGeometry relative="1" as="geometry" />
        </mxCell>
        <mxCell id="AI65t0Lun6rir1HkQO0F-27" style="edgeStyle=orthogonalEdgeStyle;rounded=0;orthogonalLoop=1;jettySize=auto;html=1;exitX=1;exitY=0.5;exitDx=0;exitDy=0;exitPerimeter=0;" parent="1" source="AI65t0Lun6rir1HkQO0F-5" target="AI65t0Lun6rir1HkQO0F-10" edge="1">
          <mxGeometry relative="1" as="geometry" />
        </mxCell>
        <mxCell id="AI65t0Lun6rir1HkQO0F-5" value="Menú:&lt;br&gt;Inicio&lt;br&gt;Consejos&lt;br&gt;Ajustes" style="strokeWidth=2;html=1;shape=mxgraph.flowchart.display;whiteSpace=wrap;" parent="1" vertex="1">
          <mxGeometry x="745" y="340" width="140" height="90" as="geometry" />
        </mxCell>
        <mxCell id="kHd_3ohGGgEumY1ikTWk-7" style="edgeStyle=orthogonalEdgeStyle;rounded=0;orthogonalLoop=1;jettySize=auto;html=1;exitX=1;exitY=0.5;exitDx=0;exitDy=0;exitPerimeter=0;entryX=0.92;entryY=0.86;entryDx=0;entryDy=0;entryPerimeter=0;curved=1;" edge="1" parent="1" source="AI65t0Lun6rir1HkQO0F-9" target="AI65t0Lun6rir1HkQO0F-5">
          <mxGeometry relative="1" as="geometry" />
        </mxCell>
        <mxCell id="AI65t0Lun6rir1HkQO0F-9" value="Mostrar consejos&lt;br&gt;&amp;nbsp;" style="strokeWidth=2;html=1;shape=mxgraph.flowchart.document2;whiteSpace=wrap;size=0.25;" parent="1" vertex="1">
          <mxGeometry x="765" y="485" width="100" height="60" as="geometry" />
        </mxCell>
        <mxCell id="AI65t0Lun6rir1HkQO0F-47" style="edgeStyle=orthogonalEdgeStyle;rounded=0;orthogonalLoop=1;jettySize=auto;html=1;exitX=0.5;exitY=1;exitDx=0;exitDy=0;exitPerimeter=0;entryX=0.5;entryY=0;entryDx=0;entryDy=0;" parent="1" source="AI65t0Lun6rir1HkQO0F-10" target="AI65t0Lun6rir1HkQO0F-44" edge="1">
          <mxGeometry relative="1" as="geometry" />
        </mxCell>
        <mxCell id="kHd_3ohGGgEumY1ikTWk-16" style="edgeStyle=orthogonalEdgeStyle;rounded=0;orthogonalLoop=1;jettySize=auto;html=1;exitX=0.2;exitY=0.86;exitDx=0;exitDy=0;exitPerimeter=0;entryX=0.92;entryY=0.86;entryDx=0;entryDy=0;entryPerimeter=0;curved=1;" edge="1" parent="1" source="AI65t0Lun6rir1HkQO0F-10" target="AI65t0Lun6rir1HkQO0F-5">
          <mxGeometry relative="1" as="geometry">
            <Array as="points">
              <mxPoint x="874" y="424" />
            </Array>
          </mxGeometry>
        </mxCell>
        <mxCell id="AI65t0Lun6rir1HkQO0F-10" value="Ajustes:&lt;br&gt;Datos de usuario&lt;br&gt;Recordatorios&lt;br&gt;Ajustes de app&lt;br&gt;Manual de usuario&lt;br&gt;Chatbot&lt;br&gt;Membresía" style="strokeWidth=2;html=1;shape=mxgraph.flowchart.display;whiteSpace=wrap;" parent="1" vertex="1">
          <mxGeometry x="1010" y="331.25" width="210" height="107.5" as="geometry" />
        </mxCell>
        <mxCell id="AI65t0Lun6rir1HkQO0F-29" style="edgeStyle=orthogonalEdgeStyle;rounded=0;orthogonalLoop=1;jettySize=auto;html=1;exitX=0.2;exitY=0.14;exitDx=0;exitDy=0;exitPerimeter=0;entryX=1;entryY=0.5;entryDx=0;entryDy=0;entryPerimeter=0;" parent="1" source="AI65t0Lun6rir1HkQO0F-12" target="AI65t0Lun6rir1HkQO0F-16" edge="1">
          <mxGeometry relative="1" as="geometry" />
        </mxCell>
        <mxCell id="AI65t0Lun6rir1HkQO0F-30" style="edgeStyle=orthogonalEdgeStyle;rounded=0;orthogonalLoop=1;jettySize=auto;html=1;exitX=0.2;exitY=0.86;exitDx=0;exitDy=0;exitPerimeter=0;entryX=1;entryY=0.5;entryDx=0;entryDy=0;entryPerimeter=0;" parent="1" source="AI65t0Lun6rir1HkQO0F-12" target="AI65t0Lun6rir1HkQO0F-17" edge="1">
          <mxGeometry relative="1" as="geometry" />
        </mxCell>
        <mxCell id="AI65t0Lun6rir1HkQO0F-31" style="edgeStyle=orthogonalEdgeStyle;rounded=0;orthogonalLoop=1;jettySize=auto;html=1;exitX=0.5;exitY=1;exitDx=0;exitDy=0;exitPerimeter=0;entryX=0.5;entryY=0;entryDx=0;entryDy=0;" parent="1" source="AI65t0Lun6rir1HkQO0F-12" target="AI65t0Lun6rir1HkQO0F-18" edge="1">
          <mxGeometry relative="1" as="geometry" />
        </mxCell>
        <mxCell id="AI65t0Lun6rir1HkQO0F-32" style="edgeStyle=orthogonalEdgeStyle;rounded=0;orthogonalLoop=1;jettySize=auto;html=1;exitX=0.5;exitY=1;exitDx=0;exitDy=0;exitPerimeter=0;entryX=0.5;entryY=0;entryDx=0;entryDy=0;" parent="1" source="AI65t0Lun6rir1HkQO0F-12" target="AI65t0Lun6rir1HkQO0F-19" edge="1">
          <mxGeometry relative="1" as="geometry" />
        </mxCell>
        <mxCell id="AI65t0Lun6rir1HkQO0F-33" style="edgeStyle=orthogonalEdgeStyle;rounded=0;orthogonalLoop=1;jettySize=auto;html=1;exitX=0.5;exitY=1;exitDx=0;exitDy=0;exitPerimeter=0;entryX=0.5;entryY=0;entryDx=0;entryDy=0;" parent="1" source="AI65t0Lun6rir1HkQO0F-12" target="AI65t0Lun6rir1HkQO0F-20" edge="1">
          <mxGeometry relative="1" as="geometry" />
        </mxCell>
        <mxCell id="AI65t0Lun6rir1HkQO0F-35" style="edgeStyle=orthogonalEdgeStyle;rounded=0;orthogonalLoop=1;jettySize=auto;html=1;exitX=0.5;exitY=1;exitDx=0;exitDy=0;exitPerimeter=0;" parent="1" source="AI65t0Lun6rir1HkQO0F-12" target="AI65t0Lun6rir1HkQO0F-22" edge="1">
          <mxGeometry relative="1" as="geometry" />
        </mxCell>
        <mxCell id="kHd_3ohGGgEumY1ikTWk-15" style="edgeStyle=orthogonalEdgeStyle;rounded=0;orthogonalLoop=1;jettySize=auto;html=1;exitX=0.92;exitY=0.14;exitDx=0;exitDy=0;exitPerimeter=0;entryX=0.114;entryY=0.767;entryDx=0;entryDy=0;entryPerimeter=0;curved=1;" edge="1" parent="1" source="AI65t0Lun6rir1HkQO0F-12" target="AI65t0Lun6rir1HkQO0F-5">
          <mxGeometry relative="1" as="geometry" />
        </mxCell>
        <mxCell id="AI65t0Lun6rir1HkQO0F-12" value="Inicio:&lt;br&gt;Masa Magra&lt;br&gt;Hidratación&lt;br&gt;Comida&lt;br&gt;Peso&lt;br&gt;Agua&lt;br&gt;Ejercicios" style="strokeWidth=2;html=1;shape=mxgraph.flowchart.display;whiteSpace=wrap;" parent="1" vertex="1">
          <mxGeometry x="390" y="440" width="140" height="150" as="geometry" />
        </mxCell>
        <mxCell id="AI65t0Lun6rir1HkQO0F-42" value="" style="edgeStyle=orthogonalEdgeStyle;rounded=0;orthogonalLoop=1;jettySize=auto;html=1;" parent="1" source="AI65t0Lun6rir1HkQO0F-13" target="AI65t0Lun6rir1HkQO0F-15" edge="1">
          <mxGeometry relative="1" as="geometry" />
        </mxCell>
        <mxCell id="kHd_3ohGGgEumY1ikTWk-3" style="edgeStyle=orthogonalEdgeStyle;rounded=0;orthogonalLoop=1;jettySize=auto;html=1;exitX=1;exitY=0.5;exitDx=0;exitDy=0;exitPerimeter=0;entryX=1;entryY=0.5;entryDx=0;entryDy=0;entryPerimeter=0;" edge="1" parent="1" source="AI65t0Lun6rir1HkQO0F-13" target="AI65t0Lun6rir1HkQO0F-10">
          <mxGeometry relative="1" as="geometry">
            <Array as="points">
              <mxPoint x="1360" y="775" />
              <mxPoint x="1360" y="385" />
            </Array>
          </mxGeometry>
        </mxCell>
        <mxCell id="AI65t0Lun6rir1HkQO0F-13" value="Manual de usuario" style="strokeWidth=2;html=1;shape=mxgraph.flowchart.document2;whiteSpace=wrap;size=0.25;" parent="1" vertex="1">
          <mxGeometry x="1065" y="740" width="115" height="70" as="geometry" />
        </mxCell>
        <mxCell id="AI65t0Lun6rir1HkQO0F-51" value="" style="edgeStyle=orthogonalEdgeStyle;rounded=0;orthogonalLoop=1;jettySize=auto;html=1;" parent="1" source="AI65t0Lun6rir1HkQO0F-15" target="AI65t0Lun6rir1HkQO0F-46" edge="1">
          <mxGeometry relative="1" as="geometry" />
        </mxCell>
        <mxCell id="kHd_3ohGGgEumY1ikTWk-2" style="edgeStyle=orthogonalEdgeStyle;rounded=0;orthogonalLoop=1;jettySize=auto;html=1;exitX=1;exitY=0.5;exitDx=0;exitDy=0;entryX=1;entryY=0.5;entryDx=0;entryDy=0;entryPerimeter=0;" edge="1" parent="1" source="AI65t0Lun6rir1HkQO0F-15" target="AI65t0Lun6rir1HkQO0F-10">
          <mxGeometry relative="1" as="geometry">
            <Array as="points">
              <mxPoint x="1360" y="875" />
              <mxPoint x="1360" y="385" />
            </Array>
          </mxGeometry>
        </mxCell>
        <mxCell id="AI65t0Lun6rir1HkQO0F-15" value="Chatbot" style="rounded=1;whiteSpace=wrap;html=1;absoluteArcSize=1;arcSize=14;strokeWidth=2;" parent="1" vertex="1">
          <mxGeometry x="1080" y="850" width="85" height="50" as="geometry" />
        </mxCell>
        <mxCell id="kHd_3ohGGgEumY1ikTWk-14" style="edgeStyle=orthogonalEdgeStyle;rounded=0;orthogonalLoop=1;jettySize=auto;html=1;entryX=0;entryY=0.5;entryDx=0;entryDy=0;entryPerimeter=0;" edge="1" parent="1" source="AI65t0Lun6rir1HkQO0F-16" target="AI65t0Lun6rir1HkQO0F-12">
          <mxGeometry relative="1" as="geometry">
            <Array as="points">
              <mxPoint x="240" y="515" />
            </Array>
          </mxGeometry>
        </mxCell>
        <mxCell id="AI65t0Lun6rir1HkQO0F-16" value="Masa magra" style="strokeWidth=2;html=1;shape=mxgraph.flowchart.document2;whiteSpace=wrap;size=0.25;" parent="1" vertex="1">
          <mxGeometry x="200" y="430" width="100" height="60" as="geometry" />
        </mxCell>
        <mxCell id="kHd_3ohGGgEumY1ikTWk-12" style="edgeStyle=orthogonalEdgeStyle;rounded=0;orthogonalLoop=1;jettySize=auto;html=1;exitX=0.5;exitY=0;exitDx=0;exitDy=0;exitPerimeter=0;entryX=0;entryY=0.5;entryDx=0;entryDy=0;entryPerimeter=0;" edge="1" parent="1" source="AI65t0Lun6rir1HkQO0F-17" target="AI65t0Lun6rir1HkQO0F-12">
          <mxGeometry relative="1" as="geometry" />
        </mxCell>
        <mxCell id="AI65t0Lun6rir1HkQO0F-17" value="Hidratación" style="strokeWidth=2;html=1;shape=mxgraph.flowchart.document2;whiteSpace=wrap;size=0.25;" parent="1" vertex="1">
          <mxGeometry x="190" y="540" width="100" height="60" as="geometry" />
        </mxCell>
        <mxCell id="kHd_3ohGGgEumY1ikTWk-8" style="edgeStyle=orthogonalEdgeStyle;rounded=0;orthogonalLoop=1;jettySize=auto;html=1;exitX=0.5;exitY=1;exitDx=0;exitDy=0;entryX=1;entryY=0.5;entryDx=0;entryDy=0;entryPerimeter=0;" edge="1" parent="1" source="AI65t0Lun6rir1HkQO0F-18" target="AI65t0Lun6rir1HkQO0F-12">
          <mxGeometry relative="1" as="geometry">
            <Array as="points">
              <mxPoint x="190" y="790" />
              <mxPoint x="670" y="790" />
              <mxPoint x="670" y="515" />
            </Array>
          </mxGeometry>
        </mxCell>
        <mxCell id="AI65t0Lun6rir1HkQO0F-18" value="Comida" style="rounded=1;whiteSpace=wrap;html=1;absoluteArcSize=1;arcSize=14;strokeWidth=2;" parent="1" vertex="1">
          <mxGeometry x="140" y="668.75" width="100" height="40" as="geometry" />
        </mxCell>
        <mxCell id="kHd_3ohGGgEumY1ikTWk-9" style="edgeStyle=orthogonalEdgeStyle;rounded=0;orthogonalLoop=1;jettySize=auto;html=1;exitX=0.5;exitY=1;exitDx=0;exitDy=0;entryX=1;entryY=0.5;entryDx=0;entryDy=0;entryPerimeter=0;" edge="1" parent="1" source="AI65t0Lun6rir1HkQO0F-19" target="AI65t0Lun6rir1HkQO0F-12">
          <mxGeometry relative="1" as="geometry">
            <Array as="points">
              <mxPoint x="330" y="790" />
              <mxPoint x="670" y="790" />
              <mxPoint x="670" y="515" />
            </Array>
          </mxGeometry>
        </mxCell>
        <mxCell id="AI65t0Lun6rir1HkQO0F-19" value="Peso" style="rounded=1;whiteSpace=wrap;html=1;absoluteArcSize=1;arcSize=14;strokeWidth=2;" parent="1" vertex="1">
          <mxGeometry x="280" y="668.75" width="100" height="40" as="geometry" />
        </mxCell>
        <mxCell id="kHd_3ohGGgEumY1ikTWk-10" style="edgeStyle=orthogonalEdgeStyle;rounded=0;orthogonalLoop=1;jettySize=auto;html=1;exitX=0.5;exitY=1;exitDx=0;exitDy=0;entryX=1;entryY=0.5;entryDx=0;entryDy=0;entryPerimeter=0;" edge="1" parent="1" source="AI65t0Lun6rir1HkQO0F-20" target="AI65t0Lun6rir1HkQO0F-12">
          <mxGeometry relative="1" as="geometry">
            <Array as="points">
              <mxPoint x="460" y="790" />
              <mxPoint x="670" y="790" />
              <mxPoint x="670" y="515" />
            </Array>
          </mxGeometry>
        </mxCell>
        <mxCell id="AI65t0Lun6rir1HkQO0F-20" value="Agua" style="rounded=1;whiteSpace=wrap;html=1;absoluteArcSize=1;arcSize=14;strokeWidth=2;" parent="1" vertex="1">
          <mxGeometry x="410" y="668.75" width="100" height="40" as="geometry" />
        </mxCell>
        <mxCell id="kHd_3ohGGgEumY1ikTWk-11" style="edgeStyle=orthogonalEdgeStyle;rounded=0;orthogonalLoop=1;jettySize=auto;html=1;exitX=0.5;exitY=1;exitDx=0;exitDy=0;entryX=1;entryY=0.5;entryDx=0;entryDy=0;entryPerimeter=0;" edge="1" parent="1" source="AI65t0Lun6rir1HkQO0F-22" target="AI65t0Lun6rir1HkQO0F-12">
          <mxGeometry relative="1" as="geometry">
            <Array as="points">
              <mxPoint x="585" y="790" />
              <mxPoint x="670" y="790" />
              <mxPoint x="670" y="515" />
            </Array>
          </mxGeometry>
        </mxCell>
        <mxCell id="AI65t0Lun6rir1HkQO0F-22" value="Ejercicio" style="rounded=1;whiteSpace=wrap;html=1;absoluteArcSize=1;arcSize=14;strokeWidth=2;" parent="1" vertex="1">
          <mxGeometry x="540" y="668.75" width="90" height="40" as="geometry" />
        </mxCell>
        <mxCell id="AI65t0Lun6rir1HkQO0F-49" style="edgeStyle=orthogonalEdgeStyle;rounded=0;orthogonalLoop=1;jettySize=auto;html=1;exitX=0.5;exitY=1;exitDx=0;exitDy=0;entryX=0.5;entryY=0;entryDx=0;entryDy=0;" parent="1" source="AI65t0Lun6rir1HkQO0F-43" target="AI65t0Lun6rir1HkQO0F-45" edge="1">
          <mxGeometry relative="1" as="geometry" />
        </mxCell>
        <mxCell id="kHd_3ohGGgEumY1ikTWk-5" style="edgeStyle=orthogonalEdgeStyle;rounded=0;orthogonalLoop=1;jettySize=auto;html=1;exitX=1;exitY=0.5;exitDx=0;exitDy=0;entryX=1;entryY=0.5;entryDx=0;entryDy=0;entryPerimeter=0;" edge="1" parent="1" source="AI65t0Lun6rir1HkQO0F-43" target="AI65t0Lun6rir1HkQO0F-10">
          <mxGeometry relative="1" as="geometry">
            <Array as="points">
              <mxPoint x="1360" y="600" />
              <mxPoint x="1360" y="385" />
            </Array>
          </mxGeometry>
        </mxCell>
        <mxCell id="AI65t0Lun6rir1HkQO0F-43" value="Establecer recordatorios" style="rounded=1;whiteSpace=wrap;html=1;absoluteArcSize=1;arcSize=14;strokeWidth=2;" parent="1" vertex="1">
          <mxGeometry x="1072.5" y="570" width="100" height="60" as="geometry" />
        </mxCell>
        <mxCell id="AI65t0Lun6rir1HkQO0F-48" style="edgeStyle=orthogonalEdgeStyle;rounded=0;orthogonalLoop=1;jettySize=auto;html=1;exitX=0.5;exitY=1;exitDx=0;exitDy=0;entryX=0.43;entryY=0.002;entryDx=0;entryDy=0;entryPerimeter=0;" parent="1" source="AI65t0Lun6rir1HkQO0F-44" target="AI65t0Lun6rir1HkQO0F-43" edge="1">
          <mxGeometry relative="1" as="geometry" />
        </mxCell>
        <mxCell id="kHd_3ohGGgEumY1ikTWk-6" style="edgeStyle=orthogonalEdgeStyle;rounded=0;orthogonalLoop=1;jettySize=auto;html=1;exitX=1;exitY=0.5;exitDx=0;exitDy=0;entryX=1;entryY=0.5;entryDx=0;entryDy=0;entryPerimeter=0;" edge="1" parent="1" source="AI65t0Lun6rir1HkQO0F-44" target="AI65t0Lun6rir1HkQO0F-10">
          <mxGeometry relative="1" as="geometry">
            <Array as="points">
              <mxPoint x="1360" y="505" />
              <mxPoint x="1360" y="385" />
            </Array>
          </mxGeometry>
        </mxCell>
        <mxCell id="AI65t0Lun6rir1HkQO0F-44" value="Datos de usuario" style="rounded=1;whiteSpace=wrap;html=1;absoluteArcSize=1;arcSize=14;strokeWidth=2;" parent="1" vertex="1">
          <mxGeometry x="1072.5" y="480" width="85" height="50" as="geometry" />
        </mxCell>
        <mxCell id="AI65t0Lun6rir1HkQO0F-50" value="" style="edgeStyle=orthogonalEdgeStyle;rounded=0;orthogonalLoop=1;jettySize=auto;html=1;" parent="1" source="AI65t0Lun6rir1HkQO0F-45" target="AI65t0Lun6rir1HkQO0F-13" edge="1">
          <mxGeometry relative="1" as="geometry" />
        </mxCell>
        <mxCell id="kHd_3ohGGgEumY1ikTWk-4" style="edgeStyle=orthogonalEdgeStyle;rounded=0;orthogonalLoop=1;jettySize=auto;html=1;exitX=1;exitY=0.5;exitDx=0;exitDy=0;entryX=1;entryY=0.5;entryDx=0;entryDy=0;entryPerimeter=0;" edge="1" parent="1" source="AI65t0Lun6rir1HkQO0F-45" target="AI65t0Lun6rir1HkQO0F-10">
          <mxGeometry relative="1" as="geometry">
            <Array as="points">
              <mxPoint x="1360" y="689" />
              <mxPoint x="1360" y="385" />
            </Array>
          </mxGeometry>
        </mxCell>
        <mxCell id="AI65t0Lun6rir1HkQO0F-45" value="Ajustes de app" style="rounded=1;whiteSpace=wrap;html=1;absoluteArcSize=1;arcSize=14;strokeWidth=2;" parent="1" vertex="1">
          <mxGeometry x="1080" y="663.75" width="85" height="50" as="geometry" />
        </mxCell>
        <mxCell id="kHd_3ohGGgEumY1ikTWk-1" style="edgeStyle=orthogonalEdgeStyle;rounded=0;orthogonalLoop=1;jettySize=auto;html=1;exitX=1;exitY=0.5;exitDx=0;exitDy=0;entryX=1;entryY=0.5;entryDx=0;entryDy=0;entryPerimeter=0;" edge="1" parent="1" source="AI65t0Lun6rir1HkQO0F-46" target="AI65t0Lun6rir1HkQO0F-10">
          <mxGeometry relative="1" as="geometry">
            <Array as="points">
              <mxPoint x="1360" y="965" />
              <mxPoint x="1360" y="385" />
            </Array>
          </mxGeometry>
        </mxCell>
        <mxCell id="AI65t0Lun6rir1HkQO0F-46" value="Membresía" style="rounded=1;whiteSpace=wrap;html=1;absoluteArcSize=1;arcSize=14;strokeWidth=2;" parent="1" vertex="1">
          <mxGeometry x="1080" y="940" width="85" height="50" as="geometry" />
        </mxCell>
      </root>
    </mxGraphModel>
  </diagram>
</mxfile>
